<svg width="529" height="48" viewBox="0 0 529 48" fill="none" xmlns="http://www.w3.org/2000/svg">
<path d="M150.648 7.90344C151.219 7.88328 151.771 7.86312 152.343 7.84296C159.675 7.48011 214.868 4.799 265.757 4.799C311.294 4.799 437.945 1.22083 478.835 0.0314689C487.52 -0.220515 496.033 1.04948 502.356 3.529C513.364 7.84296 529 14.8985 529 20.2406C529 28.4754 519.058 47.0012 469.388 47.0012C419.719 47.0012 315.408 44.945 315.408 44.945L151.714 39.8852C149.924 39.8247 148.115 39.8348 146.324 39.9154L34.11 44.562C15.8456 45.318 0 39.3712 0 31.7713C0 26.651 7.33241 22.0145 18.6834 19.9785L69.5531 10.8466C72.8289 10.262 76.3332 9.90923 79.8947 9.80844L150.61 7.91352H150.648V7.90344Z" fill="#DDA2AB"/>
</svg>
